<mxfile host="app.diagrams.net" agent="Mozilla/5.0 (Windows NT 10.0; Win64; x64) AppleWebKit/537.36 (KHTML, like Gecko) Chrome/136.0.0.0 Safari/537.36" version="27.0.5">
  <diagram name="Page-1" id="92eJsg2LP9L7vtY0PZTv">
    <mxGraphModel dx="1426" dy="743" grid="1" gridSize="10" guides="1" tooltips="1" connect="1" arrows="1" fold="1" page="1" pageScale="1" pageWidth="827" pageHeight="1169" math="0" shadow="0">
      <root>
        <mxCell id="0" />
        <mxCell id="1" parent="0" />
        <mxCell id="LWxLt537ZU6v7T-5PbYw-3" style="edgeStyle=orthogonalEdgeStyle;rounded=0;orthogonalLoop=1;jettySize=auto;html=1;entryX=0.5;entryY=0;entryDx=0;entryDy=0;" edge="1" parent="1" source="LWxLt537ZU6v7T-5PbYw-1" target="LWxLt537ZU6v7T-5PbYw-2">
          <mxGeometry relative="1" as="geometry" />
        </mxCell>
        <mxCell id="LWxLt537ZU6v7T-5PbYw-1" value="User hits route (e.g. /dayview)" style="rounded=0;whiteSpace=wrap;html=1;" vertex="1" parent="1">
          <mxGeometry x="320" y="80" width="120" height="60" as="geometry" />
        </mxCell>
        <mxCell id="LWxLt537ZU6v7T-5PbYw-5" style="edgeStyle=orthogonalEdgeStyle;rounded=0;orthogonalLoop=1;jettySize=auto;html=1;entryX=0.5;entryY=0;entryDx=0;entryDy=0;" edge="1" parent="1" source="LWxLt537ZU6v7T-5PbYw-2" target="LWxLt537ZU6v7T-5PbYw-4">
          <mxGeometry relative="1" as="geometry" />
        </mxCell>
        <mxCell id="LWxLt537ZU6v7T-5PbYw-6" value="Yes" style="edgeLabel;html=1;align=center;verticalAlign=middle;resizable=0;points=[];" vertex="1" connectable="0" parent="LWxLt537ZU6v7T-5PbYw-5">
          <mxGeometry x="-0.3053" relative="1" as="geometry">
            <mxPoint x="16" y="-10" as="offset" />
          </mxGeometry>
        </mxCell>
        <mxCell id="LWxLt537ZU6v7T-5PbYw-8" style="edgeStyle=orthogonalEdgeStyle;rounded=0;orthogonalLoop=1;jettySize=auto;html=1;" edge="1" parent="1" source="LWxLt537ZU6v7T-5PbYw-2" target="LWxLt537ZU6v7T-5PbYw-7">
          <mxGeometry relative="1" as="geometry" />
        </mxCell>
        <mxCell id="LWxLt537ZU6v7T-5PbYw-9" value="No" style="edgeLabel;html=1;align=center;verticalAlign=middle;resizable=0;points=[];" vertex="1" connectable="0" parent="LWxLt537ZU6v7T-5PbYw-8">
          <mxGeometry x="-0.5111" y="-2" relative="1" as="geometry">
            <mxPoint x="6" y="-12" as="offset" />
          </mxGeometry>
        </mxCell>
        <mxCell id="LWxLt537ZU6v7T-5PbYw-2" value="New UI enabled?" style="rhombus;whiteSpace=wrap;html=1;" vertex="1" parent="1">
          <mxGeometry x="340" y="200" width="80" height="80" as="geometry" />
        </mxCell>
        <mxCell id="LWxLt537ZU6v7T-5PbYw-4" value="New Component" style="rounded=1;whiteSpace=wrap;html=1;" vertex="1" parent="1">
          <mxGeometry x="170" y="320" width="120" height="60" as="geometry" />
        </mxCell>
        <mxCell id="LWxLt537ZU6v7T-5PbYw-7" value="Old Component" style="rounded=1;whiteSpace=wrap;html=1;" vertex="1" parent="1">
          <mxGeometry x="460" y="320" width="120" height="60" as="geometry" />
        </mxCell>
      </root>
    </mxGraphModel>
  </diagram>
</mxfile>
